<?xml version="1.0" encoding="UTF-8" standalone="no"?>
<svg
   xmlns:dc="http://purl.org/dc/elements/1.1/"
   xmlns:cc="http://creativecommons.org/ns#"
   xmlns:rdf="http://www.w3.org/1999/02/22-rdf-syntax-ns#"
   xmlns:svg="http://www.w3.org/2000/svg"
   xmlns="http://www.w3.org/2000/svg"
   xmlns:sodipodi="http://sodipodi.sourceforge.net/DTD/sodipodi-0.dtd"
   xmlns:inkscape="http://www.inkscape.org/namespaces/inkscape"
   width="41"
   height="27"
   viewBox="0 0 41 27"
   fill="none"
   version="1.1"
   id="svg4"
   sodipodi:docname="arrow.svg"
   inkscape:version="0.92.1 r15371">
  <metadata
     id="metadata10">
    <rdf:RDF>
      <cc:Work
         rdf:about="">
        <dc:format>image/svg+xml</dc:format>
        <dc:type
           rdf:resource="http://purl.org/dc/dcmitype/StillImage" />
        <dc:title />
      </cc:Work>
    </rdf:RDF>
  </metadata>
  <defs
     id="defs8" />
  <sodipodi:namedview
     pagecolor="#ffffff"
     bordercolor="#666666"
     borderopacity="1"
     objecttolerance="10"
     gridtolerance="10"
     guidetolerance="10"
     inkscape:pageopacity="0"
     inkscape:pageshadow="2"
     inkscape:window-width="640"
     inkscape:window-height="480"
     id="namedview6"
     showgrid="false"
     inkscape:zoom="6.7560976"
     inkscape:cx="20.5"
     inkscape:cy="13.5"
     inkscape:window-x="0"
     inkscape:window-y="0"
     inkscape:window-maximized="0"
     inkscape:current-layer="svg4" />
  <path
     d="M 0.366428,12.6161 12.8539,0.358167 c 0.4865,-0.477556 1.2778,-0.477556 1.7663,0 0.4865,0.479538 0.4865,1.256313 0,1.733863 L 4.25235,12.2674 H 39.1247 c 0.6904,0 1.2496,0.5488 1.2496,1.2265 0,0.6777 -0.5592,1.2266 -1.2496,1.2266 H 4.27658 L 14.6202,24.8741 c 0.4865,0.4775 0.4865,1.2543 0,1.7338 -0.2463,0.2378 -0.5652,0.3587 -0.8842,0.3587 -0.3189,0 -0.6399,-0.1209 -0.8821,-0.3587 L 0.366428,14.35 c -0.488517,-0.4796 -0.488517,-1.2543 0,-1.7339 z"
     id="path2"
     inkscape:connector-curvature="0"
     style="clip-rule:evenodd;fill:#384555;fill-rule:evenodd" />
</svg>
